<svg width="15" height="15" viewBox="0 0 15 15" fill="none" xmlns="http://www.w3.org/2000/svg">
<path d="M2.49646 9.33934C2.75803 9.60168 2.9075 10.1264 2.82529 10.4936L2.43667 12.1801C2.43667 12.1801 1.86866 14.2414 2.69077 14.7301C3.51287 15.2188 3.85664 14.9849 4.68621 14.4977L6.87596 13.1935C7.21974 12.9911 7.78773 12.9911 8.13152 13.1935L10.3213 14.4977C10.8145 14.79 11.2629 14.9325 11.6441 14.9325C11.8841 14.939 12.1199 14.868 12.3167 14.7301C12.7801 14.3928 12.9146 13.6882 12.6979 12.7513L12.1822 10.4951C12.0925 10.1279 12.242 9.61067 12.511 9.34084L14.3196 7.51944C14.8876 6.94979 15.1118 6.34266 14.9474 5.81797C14.7755 5.29329 14.2449 4.93351 13.4527 4.79859L12.6979 4.67117C12.227 4.58872 10.7398 4.24992 10.7398 4.24992C10.5231 4.1225 10.3213 3.93511 10.2241 3.74023L8.93866 1.1543C8.56498 0.41225 8.05678 0 7.50374 0C6.95069 0 6.44249 0.41225 6.06881 1.1543L4.78336 3.74023C4.62642 4.04755 4.21537 4.34737 3.87906 4.40733L1.54731 4.79709C0.755118 4.93201 0.224495 5.29179 0.0526036 5.81647C-0.111815 6.34116 0.112392 6.94829 0.680382 7.51794L2.49646 9.33934Z" fill="black"/>
</svg>
