<svg width="34" height="34" viewBox="0 0 34 34" fill="none" xmlns="http://www.w3.org/2000/svg">
<rect width="34" height="34" rx="6" fill="#EDEDED"/>
<path d="M18.1441 8.97472L18.1684 8.95042H18.1927H18.2171L18.2172 8.95035L18.2415 8.92604H18.2659L18.2659 8.92597L18.2902 8.90166H18.3146L18.3147 8.90159V8.87721L18.339 8.85291L18.3391 8.85283V8.82845L18.3634 8.80415L18.3635 8.80408V8.7797V8.75532V8.73094V8.70656V8.68218V8.6578V8.63343V8.60905V8.58467V8.56029V8.53591V8.51153V8.48716V8.46278V8.4384V8.41402V8.38964V8.36526V8.34089V8.31651V8.29213V8.26775V8.24337V8.21899V8.19462V8.17024V8.14586V8.12148V8.0971V8.07272V8.04835V8.02397V7.99959V7.97521L18.3878 7.95091L18.3878 7.95083V7.92645V7.90208V7.8777V7.85332V7.82894V7.80456V7.78018V7.75581V7.73143V7.70705V7.68267V7.65829V7.63391V7.60953L18.3878 7.60946L18.3635 7.58516V7.56078V7.5364V7.51202V7.48764V7.46326V7.43889L18.3634 7.43881L18.3391 7.41451V7.39013V7.36575L18.339 7.36568L18.3147 7.34137V7.31699L18.3146 7.31692L18.2903 7.29262V7.26824L18.2902 7.26816L18.2659 7.24386L18.2659 7.24378L18.2416 7.21948L18.2415 7.21941L18.2172 7.1951L18.2171 7.19503L18.1928 7.17072L18.1927 7.17065L18.1684 7.14635L18.1684 7.14627L18.1441 7.12197L18.144 7.12189L18.1197 7.09759L18.1196 7.09751H18.0952L18.0709 7.07321L18.0708 7.07314H18.0465L18.0222 7.04883L18.0221 7.04876H17.9977L17.9734 7.02445L17.9733 7.02438H17.9489H17.9246H17.9002H17.8758H17.8514L17.8271 7.00008L17.8271 7H17.8027H17.7783H17.7539H17.7295H17.7052H17.6808H17.6564H17.632H17.6077H17.5833H17.5589H17.5345H17.5101H17.4858H17.4614H17.437H17.4126H17.3882H17.3639H17.3395H17.3151H17.2907H17.2664H17.242H17.2176H17.1932H17.1688H17.1445H17.1201H17.0957H17.0713H17.0469H17.0226H16.9982H16.9738H16.9494H16.9251H16.9007H16.8763H16.8519H16.8275H16.8032H16.7788H16.7544H16.73H16.7057H16.6813H16.6569H16.6325H16.6081H16.5838H16.5594H16.535H16.5106H16.4862H16.4619H16.4375H16.4131H16.3887H16.3644H16.34H16.3156H16.2912H16.2668H16.2425H16.2181H16.1937H16.1693H16.1449H16.1206H16.0962H16.0718H16.0474H16.0231H15.9987H15.9743H15.9499H15.9255H15.9012H15.8768H15.8524H15.828H15.8037H15.7793H15.7549H15.7305H15.7061H15.6818H15.6574H15.633H15.6086H15.5842H15.5599H15.5355H15.5111H15.4867H15.4624H15.438L15.4379 7.00008L15.4136 7.02438H15.3892H15.3648H15.3405H15.3161H15.2917H15.2673L15.2673 7.02445L15.2429 7.04876H15.2186H15.1942L15.1941 7.04883L15.1698 7.07314H15.1454L15.1454 7.07321L15.1211 7.09751L15.121 7.09759L15.0967 7.12189H15.0723L15.0722 7.12197L15.0479 7.14627L15.0478 7.14635L15.0235 7.17065L15.0235 7.17072L14.9992 7.19503L14.9991 7.1951V7.21948L14.9748 7.24378L14.9747 7.24386L14.9504 7.26816L14.9503 7.26824V7.29262L14.926 7.31692L14.926 7.31699V7.34137L14.9017 7.36568L14.9016 7.36575V7.39013V7.41451L14.8773 7.43881L14.8772 7.43889V7.46326V7.48764V7.51202V7.5364V7.56078V7.58516V7.60953V7.63391V7.65829V7.68267V7.70705V7.73143V7.75581V7.78018V7.80456V7.82894V7.85332V7.8777V7.90208V7.92645V7.95083V7.97521V7.99959V8.02397V8.04835V8.07272V8.0971V8.12148V8.14586V8.17024V8.19462V8.21899V8.24337V8.26775V8.29213V8.31651V8.34089V8.36526V8.38964V8.41402V8.4384V8.46278V8.48716V8.51153V8.53591V8.56029V8.58467V8.60905V8.63343V8.6578V8.68218V8.70656V8.73094V8.75532V8.7797L14.8773 8.77977L14.9016 8.80408V8.82845V8.85283L14.9017 8.85291L14.926 8.87721L14.926 8.87729L14.9503 8.90159L14.9504 8.90166L14.9747 8.92597L14.9748 8.92604H14.9992L15.0235 8.95035L15.0235 8.95042H15.0479H15.0723L15.0966 8.97472L15.0967 8.9748H15.1211H15.1454H15.1698H15.1942H15.2186H15.2429H15.2673H15.2917H15.3161H15.3405H15.3648H15.3892H15.4136H15.438H15.4624H15.4867H15.5111H15.5355H15.5599H15.5842H15.6086H15.633H15.6574H15.6818H15.7061H15.7305H15.7549H15.7793H15.8037H15.828H15.8524H15.8768H15.9012H15.9255H15.9499H15.9743H15.9987H16.0231H16.0474H16.0718H16.0962H16.1206H16.1449H16.1693H16.1937H16.2181H16.2425H16.2668H16.2912H16.3156H16.34H16.3644H16.3887H16.4131H16.4375H16.4619H16.4862H16.5106H16.535H16.5594H16.5838H16.6081H16.6325H16.6569H16.6813H16.7057H16.73H16.7544H16.7788H16.8032H16.8275H16.8519H16.8763H16.9007H16.9251H16.9494H16.9738H16.9982H17.0226H17.0469H17.0713H17.0957H17.1201H17.1445H17.1688H17.1932H17.2176H17.242H17.2664H17.2907H17.3151H17.3395H17.3639H17.3882H17.4126H17.437H17.4614H17.4858H17.5101H17.5345H17.5589H17.5833H17.6077H17.632H17.6564H17.6808H17.7052H17.7295H17.7539H17.7783H17.8027H17.8271H17.8514H17.8758H17.9002H17.9246H17.9489H17.9733H17.9977H18.0221H18.0465H18.0708H18.0952H18.1196H18.144L18.1441 8.97472Z" fill="#3F3F3F"/>
<path d="M19.9968 13.8504L20.0211 13.8261H20.0455H20.0699L20.0699 13.826L20.0942 13.8017H20.1186L20.1187 13.8016L20.143 13.7773L20.1431 13.7772L20.1674 13.7529L20.1675 13.7528V13.7285V13.7041L20.1918 13.6798L20.1918 13.6797V13.6553V13.631V13.6066V13.5822V13.5578V13.5334V13.5091V13.4847V13.4603V13.4359V13.4116V13.3872V13.3628V13.3384V13.314V13.2897V13.2653V13.2409V13.2165V13.1921V13.1678V13.1434V13.119L20.1918 13.1189L20.1675 13.0946V13.0703V13.0459V13.0215V12.9971V12.9727V12.9484L20.1674 12.9483L20.1431 12.924V12.8996V12.8752V12.8508V12.8265L20.143 12.8264L20.1187 12.8021V12.7777V12.7533V12.729L20.1186 12.7289L20.0943 12.7046V12.6802V12.6558V12.6314L20.0942 12.6314L20.0699 12.6071V12.5827V12.5583L20.0699 12.5582L20.0456 12.5339V12.5096V12.4852L20.0455 12.4851L20.0212 12.4608V12.4364V12.412L20.0211 12.412L19.9968 12.3877V12.3633L19.9967 12.3632L19.9724 12.3389V12.3145L19.9724 12.3144L19.9481 12.2901V12.2658L19.948 12.2657L19.9237 12.2414V12.217L19.9236 12.2169L19.8993 12.1926V12.1683V12.1439L19.8992 12.1438L19.8749 12.1195L19.8748 12.1194L19.8505 12.0951V12.0707L19.8505 12.0707L19.8262 12.0464V12.022L19.8261 12.0219L19.8018 11.9976V11.9732L19.8017 11.9732L19.7774 11.9488V11.9245L19.7773 11.9244L19.753 11.9001L19.7529 11.9L19.7286 11.8757V11.8513L19.7286 11.8513L19.7043 11.827V11.8026L19.7042 11.8025L19.6799 11.7782L19.6798 11.7781L19.6555 11.7538V11.7294L19.6554 11.7294L19.6311 11.7051L19.6311 11.705L19.6068 11.6807L19.6067 11.6806L19.5824 11.6563V11.6319L19.5823 11.6319L19.558 11.6076L19.5579 11.6075L19.5336 11.5832L19.5335 11.5831L19.5092 11.5588V11.5344L19.5092 11.5343L19.4849 11.51L19.4848 11.51L19.4605 11.4857L19.4604 11.4856L19.4361 11.4613V11.4369L19.436 11.4368L19.4117 11.4125L19.4116 11.4124L19.3873 11.3881L19.3873 11.3881L19.363 11.3638L19.3629 11.3637L19.3386 11.3394V11.315L19.3385 11.3149L19.3142 11.2906L19.3141 11.2906L19.2898 11.2663L19.2898 11.2662L19.2655 11.2419L19.2654 11.2418L19.2411 11.2175L19.241 11.2174L19.2167 11.1931L19.2166 11.193L19.1923 11.1687V11.1444L19.1922 11.1443L19.1679 11.12L19.1679 11.1199L19.1436 11.0956L19.1435 11.0955L19.1192 11.0712L19.1191 11.0712L19.0948 11.0468L19.0947 11.0468L19.0704 11.0225L19.0704 11.0224L19.0461 10.9981L19.046 10.998L19.0217 10.9737L19.0216 10.9736L18.9973 10.9493L18.9972 10.9493L18.9729 10.925L18.9728 10.9249H18.9485L18.9242 10.9006L18.9241 10.9005L18.8998 10.8762L18.8997 10.8761L18.8754 10.8518L18.8753 10.8517L18.851 10.8274L18.8509 10.8274L18.8266 10.8031L18.8266 10.803L18.8023 10.7787L18.8022 10.7786L18.7779 10.7543L18.7778 10.7542L18.7535 10.7299L18.7534 10.7299L18.7291 10.7056L18.7291 10.7055L18.7048 10.6812L18.7047 10.6811L18.6804 10.6568L18.6803 10.6567L18.656 10.6324L18.6559 10.6323L18.6316 10.608L18.6315 10.608H18.6072L18.5829 10.5837L18.5828 10.5836L18.5585 10.5593L18.5584 10.5592L18.5341 10.5349L18.534 10.5348L18.5097 10.5105L18.5096 10.5104L18.4853 10.4861L18.4853 10.4861L18.461 10.4618L18.4609 10.4617L18.4366 10.4374L18.4365 10.4373L18.4122 10.413L18.4121 10.4129L18.3878 10.3886L18.3878 10.3886L18.3635 10.3643L18.3634 10.3642L18.3391 10.3399L18.339 10.3398L18.3147 10.3155L18.3146 10.3154L18.2903 10.2911L18.2902 10.291L18.2659 10.2667V10.2424L18.2659 10.2423L18.2416 10.218L18.2415 10.2179L18.2172 10.1936L18.2171 10.1935L18.1928 10.1692V10.1448L18.1927 10.1448L18.1684 10.1205L18.1684 10.1204L18.1441 10.0961V10.0717L18.144 10.0716L18.1197 10.0473V10.023V9.99858L18.1196 9.9985L18.0953 9.9742V9.94982V9.92544L18.0952 9.92537L18.0709 9.90107V9.87669V9.85231V9.82793V9.80355V9.77917L18.0708 9.7791L18.0465 9.75479V9.73042V9.70604V9.68166L18.0465 9.68158L18.0222 9.65728V9.6329L18.0221 9.63283L17.9978 9.60852L17.9977 9.60845H17.9733L17.949 9.58415L17.9489 9.58407H17.9246L17.9003 9.55977L17.9002 9.55969H17.8758H17.8514H17.8271H17.8027H17.7783H17.7539H17.7295H17.7052H17.6808H17.6564H17.632H17.6076H17.5833H17.5589H17.5345H17.5101H17.4858H17.4614H17.437H17.4126H17.3882H17.3639H17.3395H17.3151H17.2907H17.2664H17.242H17.2176H17.1932H17.1688H17.1445H17.1201H17.0957H17.0713H17.0469H17.0226H16.9982H16.9738H16.9494H16.9251H16.9007H16.8763H16.8519H16.8275H16.8032H16.7788H16.7544H16.73H16.7057H16.6813H16.6569H16.6325H16.6081H16.5838H16.5594H16.535H16.5106H16.4862H16.4619H16.4375H16.4131H16.3887H16.3644H16.34H16.3156H16.2912H16.2668H16.2425H16.2181H16.1937H16.1693H16.1449H16.1206H16.0962H16.0718H16.0474H16.0231H15.9987H15.9743H15.9499H15.9255H15.9012H15.8768H15.8524H15.828H15.8037H15.7793H15.7549H15.7305H15.7061H15.6818H15.6574H15.633H15.6086H15.5842H15.5599H15.5355H15.5111H15.4867H15.4624H15.438H15.4136H15.3892H15.3648H15.3405H15.3161L15.316 9.55977L15.2917 9.58407H15.2673L15.2673 9.58415L15.2429 9.60845H15.2186L15.2185 9.60852V9.6329L15.1942 9.65721L15.1941 9.65728V9.68166L15.1698 9.70596L15.1697 9.70604V9.73042V9.75479V9.77917V9.80355V9.82793L15.1454 9.85223L15.1454 9.85231V9.87669V9.90107V9.92544V9.94982L15.1211 9.97412L15.121 9.9742V9.99858L15.0967 10.0229L15.0966 10.023V10.0473V10.0717L15.0723 10.096L15.0722 10.0961L15.0479 10.1204L15.0478 10.1205V10.1448L15.0235 10.1692L15.0235 10.1692L14.9992 10.1935L14.9991 10.1936L14.9748 10.2179L14.9747 10.218V10.2424L14.9504 10.2667L14.9503 10.2667L14.926 10.291L14.926 10.2911L14.9017 10.3154L14.9016 10.3155L14.8773 10.3398L14.8772 10.3399L14.8529 10.3642L14.8528 10.3643L14.8285 10.3886L14.8284 10.3886L14.8041 10.4129L14.8041 10.413L14.7798 10.4373L14.7797 10.4374L14.7554 10.4617L14.7553 10.4618L14.731 10.4861L14.7309 10.4861L14.7066 10.5104L14.7065 10.5105L14.6822 10.5348L14.6822 10.5349L14.6579 10.5592L14.6578 10.5593L14.6335 10.5836L14.6334 10.5837L14.6091 10.608H14.5847L14.5847 10.608L14.5604 10.6323L14.5603 10.6324L14.536 10.6567L14.5359 10.6568L14.5116 10.6811L14.5115 10.6812L14.4872 10.7055L14.4871 10.7056L14.4628 10.7299L14.4628 10.7299L14.4385 10.7542L14.4384 10.7543L14.4141 10.7786L14.414 10.7787L14.3897 10.803L14.3896 10.8031L14.3653 10.8274L14.3653 10.8274L14.3409 10.8517H14.3166L14.3165 10.8518L14.2922 10.8761L14.2921 10.8762L14.2678 10.9005L14.2677 10.9006L14.2434 10.9249L14.2434 10.925L14.2191 10.9493L14.219 10.9493L14.1947 10.9736L14.1946 10.9737L14.1703 10.998L14.1702 10.9981L14.1459 11.0224L14.1458 11.0225L14.1215 11.0468L14.1215 11.0468L14.0972 11.0712L14.0971 11.0712L14.0728 11.0955L14.0727 11.0956L14.0484 11.1199L14.0483 11.12L14.024 11.1443L14.024 11.1444L13.9997 11.1687L13.9996 11.1687V11.1931L13.9753 11.2174L13.9752 11.2175L13.9509 11.2418L13.9508 11.2419L13.9265 11.2662L13.9264 11.2663L13.9021 11.2906L13.9021 11.2906L13.8778 11.3149L13.8777 11.315L13.8534 11.3393L13.8533 11.3394L13.829 11.3637L13.8289 11.3638V11.3881L13.8046 11.4124L13.8045 11.4125L13.7802 11.4368L13.7802 11.4369L13.7559 11.4612L13.7558 11.4613V11.4857L13.7315 11.51L13.7314 11.51L13.7071 11.5343L13.707 11.5344L13.6827 11.5587L13.6827 11.5588V11.5832L13.6584 11.6075L13.6583 11.6076L13.634 11.6319L13.6339 11.6319L13.6096 11.6562L13.6095 11.6563V11.6807L13.5852 11.705L13.5851 11.7051L13.5608 11.7294L13.5608 11.7294V11.7538L13.5365 11.7781L13.5364 11.7782L13.5121 11.8025L13.512 11.8026V11.827L13.4877 11.8513L13.4876 11.8513V11.8757L13.4633 11.9L13.4633 11.9001L13.4389 11.9244L13.4389 11.9245V11.9488L13.4146 11.9732L13.4145 11.9732L13.3902 11.9975L13.3901 11.9976V12.022L13.3658 12.0463L13.3657 12.0464V12.0707L13.3414 12.095L13.3414 12.0951V12.1195L13.3171 12.1438L13.317 12.1439V12.1683L13.2927 12.1926L13.2926 12.1926V12.217L13.2683 12.2413L13.2682 12.2414V12.2658L13.2439 12.2901L13.2438 12.2901V12.3145L13.2195 12.3388L13.2195 12.3389V12.3633V12.3877L13.1952 12.412L13.1951 12.412V12.4364L13.1708 12.4607L13.1707 12.4608V12.4852V12.5096L13.1464 12.5339L13.1463 12.5339V12.5583V12.5827L13.122 12.607L13.122 12.6071V12.6314V12.6558V12.6802L13.0977 12.7045L13.0976 12.7046V12.729V12.7533V12.7777L13.0733 12.802L13.0732 12.8021V12.8265V12.8508V12.8752L13.0489 12.8995L13.0488 12.8996V12.924V12.9484V12.9727V12.9971L13.0245 13.0214L13.0244 13.0215V13.0459V13.0703V13.0946V13.119V13.1434V13.1678V13.1921V13.2165L13.0001 13.2408L13.0001 13.2409V13.2653V13.2897V13.314V13.3384V13.3628V13.3872V13.4116V13.4359V13.4603V13.4847V13.5091V13.5334V13.5578V13.5822V13.6066V13.631V13.6553L13.0001 13.6554L13.0244 13.6797V13.7041V13.7285L13.0245 13.7285L13.0488 13.7528V13.7772L13.0489 13.7773H13.0733L13.0976 13.8016L13.0977 13.8017L13.122 13.826L13.122 13.8261H13.1464H13.1708L13.1951 13.8504L13.1952 13.8504H13.2195H13.2439H13.2683H13.2927H13.3171H13.3414H13.3658H13.3902H13.4146H13.4389H13.4633H13.4877H13.5121H13.5365H13.5608H13.5852H13.6096H13.634H13.6584H13.6827H13.7071H13.7315H13.7559H13.7802H13.8046H13.829H13.8534H13.8778H13.9021H13.9265H13.9509H13.9753H13.9997H14.024H14.0484H14.0728H14.0972H14.1215H14.1459H14.1703H14.1947H14.2191H14.2434H14.2678H14.2922H14.3166H14.3409H14.3653H14.3897H14.4141H14.4385H14.4628H14.4872H14.5116H14.536H14.5604H14.5847H14.6091H14.6335H14.6579H14.6822H14.7066H14.731H14.7554H14.7798H14.8041H14.8285H14.8529H14.8773H14.9017H14.926H14.9504H14.9748H14.9992H15.0235H15.0479H15.0723H15.0967H15.1211H15.1454H15.1698H15.1942H15.2186H15.2429H15.2673H15.2917H15.3161H15.3405H15.3648H15.3892H15.4136H15.438H15.4624H15.4867H15.5111H15.5355H15.5599H15.5842H15.6086H15.633H15.6574H15.6818H15.7061H15.7305H15.7549H15.7793H15.8037H15.828H15.8524H15.8768H15.9012H15.9255H15.9499H15.9743H15.9987H16.0231H16.0474H16.0718H16.0962H16.1206H16.1449H16.1693H16.1937H16.2181H16.2425H16.2668H16.2912H16.3156H16.34H16.3644H16.3887H16.4131H16.4375H16.4619H16.4862H16.5106H16.535H16.5594H16.5838H16.6081H16.6325H16.6569H16.6813H16.7057H16.73H16.7544H16.7788H16.8032H16.8275H16.8519H16.8763H16.9007H16.9251H16.9494H16.9738H16.9982H17.0226H17.0469H17.0713H17.0957H17.1201H17.1445H17.1688H17.1932H17.2176H17.242H17.2664H17.2907H17.3151H17.3395H17.3639H17.3882H17.4126H17.437H17.4614H17.4858H17.5101H17.5345H17.5589H17.5833H17.6076H17.632H17.6564H17.6808H17.7052H17.7295H17.7539H17.7783H17.8027H17.8271H17.8514H17.8758H17.9002H17.9246H17.9489H17.9733H17.9977H18.0221H18.0465H18.0708H18.0952H18.1196H18.144H18.1684H18.1927H18.2171H18.2415H18.2659H18.2902H18.3146H18.339H18.3634H18.3878H18.4121H18.4365H18.4609H18.4853H18.5096H18.534H18.5584H18.5828H18.6072H18.6315H18.6559H18.6803H18.7047H18.7291H18.7534H18.7778H18.8022H18.8266H18.8509H18.8753H18.8997H18.9241H18.9485H18.9728H18.9972H19.0216H19.046H19.0704H19.0947H19.1191H19.1435H19.1679H19.1922H19.2166H19.241H19.2654H19.2898H19.3141H19.3385H19.3629H19.3873H19.4116H19.436H19.4604H19.4848H19.5092H19.5335H19.5579H19.5823H19.6067H19.6311H19.6554H19.6798H19.7042H19.7286H19.7529H19.7773H19.8017H19.8261H19.8505H19.8748H19.8992H19.9236H19.948H19.9724H19.9967L19.9968 13.8504Z" fill="#3F3F3F"/>
<path d="M19.9968 17.629L20.0211 17.6047H20.0454L20.0455 17.6046L20.0698 17.5803H20.0942L20.0943 17.5803L20.1186 17.556L20.1186 17.5559L20.143 17.5316L20.143 17.5315V17.5071L20.1673 17.4828L20.1674 17.4827V17.4584V17.434V17.4096V17.3852V17.3609V17.3365V17.3121V17.2877V17.2633V17.239V17.2146V17.1902V17.1658V17.1414V17.1171V17.0927V17.0683V17.0439V17.0196V16.9952V16.9708V16.9464V16.922V16.8977V16.8733V16.8489V16.8245V16.8002V16.7758V16.7514V16.727V16.7026V16.6783V16.6539V16.6295V16.6051V16.5807V16.5564V16.532V16.5076V16.4832V16.4589V16.4345V16.4101V16.3857V16.3613V16.337V16.3126V16.2882V16.2638V16.2394V16.2151V16.1907V16.1663V16.1419V16.1176V16.0932V16.0688V16.0444V16.02V15.9957V15.9713V15.9469V15.9225V15.8982V15.8738V15.8494V15.825V15.8006V15.7763V15.7519V15.7275V15.7031V15.6787V15.6544V15.63V15.6056V15.5812V15.5569V15.5325V15.5081V15.4837V15.4593V15.435V15.4106V15.3862V15.3618V15.3374V15.3131V15.2887V15.2643V15.2399V15.2156V15.1912V15.1668V15.1424V15.118V15.0937V15.0693V15.0449V15.0205V14.9962L20.1917 14.9719L20.1918 14.9718V14.9474V14.923V14.8986V14.8743V14.8499V14.8255V14.8011V14.7767L20.1917 14.7767L20.1674 14.7524V14.728V14.7036V14.6792V14.6549V14.6305L20.1673 14.6304L20.143 14.6061V14.5817L20.143 14.5816L20.1186 14.5573L20.1186 14.5573L20.0943 14.533L20.0942 14.5329H20.0698L20.0455 14.5086L20.0454 14.5085H20.0211H19.9967H19.9723H19.9479L19.9236 14.4842L19.9235 14.4841L19.9235 14.4842L19.8992 14.5085H19.8748H19.8504H19.826H19.8017H19.7773H19.7529H19.7285H19.7041H19.6798H19.6554H19.631H19.6066H19.5822H19.5579H19.5335H19.5091H19.4847H19.4604H19.436H19.4116H19.3872H19.3628H19.3385H19.3141H19.2897H19.2653H19.241H19.2166H19.1922H19.1678H19.1434H19.1191H19.0947H19.0703H19.0459H19.0215H18.9972H18.9728H18.9484H18.924H18.8997H18.8753H18.8509H18.8265H18.8021H18.7778H18.7534H18.729H18.7046H18.6802H18.6559H18.6315H18.6071H18.5827H18.5584H18.534H18.5096H18.4852H18.4608H18.4365H18.4121H18.3877H18.3633H18.339H18.3146H18.2902H18.2658H18.2414H18.2171H18.1927H18.1683H18.1439H18.1195H18.0952H18.0708H18.0464H18.022H17.9977H17.9733H17.9489H17.9245H17.9001H17.8758H17.8514H17.827H17.8026H17.7782H17.7539H17.7295H17.7051H17.6807H17.6564H17.632H17.6076H17.5832H17.5588H17.5345H17.5101H17.4857H17.4613H17.437H17.4126H17.3882H17.3638H17.3394H17.3151H17.2907H17.2663H17.2419H17.2175H17.1932H17.1688H17.1444H17.12H17.0957H17.0713H17.0469H17.0225H16.9981H16.9738H16.9494H16.925H16.9006H16.8762H16.8519H16.8275H16.8031H16.7787H16.7544H16.73H16.7056H16.6812H16.6568H16.6325H16.6081H16.5837H16.5593H16.535H16.5106H16.4862H16.4618H16.4374H16.4131H16.3887H16.3643H16.3399H16.3155H16.2912H16.2668H16.2424H16.218H16.1937H16.1693H16.1449H16.1205H16.0961H16.0718H16.0474H16.023H15.9986H15.9742H15.9499H15.9255H15.9011H15.8767H15.8524H15.828H15.8036H15.7792H15.7548H15.7305H15.7061H15.6817H15.6573H15.633H15.6086H15.5842H15.5598H15.5354H15.5111H15.4867H15.4623H15.4379H15.4135H15.3892H15.3648H15.3404H15.316H15.2917H15.2673H15.2429H15.2185H15.1941H15.1698H15.1454H15.121H15.0966H15.0722H15.0479H15.0235H14.9991H14.9747H14.9504H14.926H14.9016H14.8772H14.8528H14.8285H14.8041H14.7797H14.7553H14.731H14.7066H14.6822H14.6578H14.6334H14.6091H14.5847H14.5603H14.5359H14.5115H14.4872H14.4628H14.4384H14.414H14.3897H14.3653H14.3409H14.3165H14.2921H14.2678H14.2434H14.219H14.1946H14.1702H14.1459H14.1215H14.0971H14.0727H14.0484H14.024H13.9996H13.9752H13.9508H13.9265H13.9021H13.8777H13.8533H13.829H13.8046H13.7802H13.7558H13.7314H13.7071H13.6827H13.6583H13.6339H13.6095H13.5852H13.5608H13.5364H13.512H13.4877L13.4634 14.4842L13.4633 14.4841H13.4389H13.4145H13.3901H13.3658H13.3414H13.317H13.2926H13.2682H13.2439L13.2438 14.4842L13.2195 14.5085H13.1951H13.1707L13.1707 14.5086L13.1464 14.5329L13.1463 14.533L13.122 14.5573L13.1219 14.5573L13.0976 14.5816L13.0975 14.5817L13.0732 14.606L13.0731 14.6061V14.6305L13.0488 14.6548L13.0488 14.6549V14.6792V14.7036V14.728V14.7524V14.7767V14.8011V14.8255V14.8499V14.8743V14.8986V14.923V14.9474V14.9718V14.9962V15.0205V15.0449V15.0693V15.0937V15.118V15.1424V15.1668V15.1912V15.2156V15.2399V15.2643V15.2887V15.3131V15.3374V15.3618V15.3862V15.4106V15.435V15.4593V15.4837V15.5081V15.5325V15.5569V15.5812V15.6056V15.63V15.6544V15.6787V15.7031V15.7275V15.7519V15.7763V15.8006V15.825V15.8494V15.8738V15.8982V15.9225V15.9469V15.9713V15.9957V16.02V16.0444V16.0688V16.0932V16.1176V16.1419V16.1663V16.1907V16.2151V16.2394V16.2638V16.2882V16.3126V16.337V16.3613V16.3857V16.4101V16.4345V16.4589V16.4832V16.5076V16.532V16.5564V16.5807V16.6051V16.6295V16.6539V16.6783V16.7026V16.727V16.7514V16.7758V16.8002V16.8245V16.8489V16.8733V16.8977V16.922V16.9464V16.9708V16.9952V17.0196V17.0439V17.0683V17.0927V17.1171V17.1414V17.1658V17.1902V17.2146V17.239V17.2633V17.2877V17.3121V17.3365V17.3609V17.3852V17.4096L13.0488 17.4097L13.0731 17.434V17.4584V17.4827L13.0732 17.4828L13.0975 17.5071V17.5315L13.0976 17.5316L13.1219 17.5559L13.122 17.556L13.1463 17.5803L13.1464 17.5803L13.1707 17.6046L13.1707 17.6047H13.1951H13.2195L13.2438 17.629L13.2439 17.6291H13.2682H13.2926H13.317H13.3414H13.3658H13.3901H13.4145H13.4389H13.4633H13.4877H13.512H13.5364H13.5608H13.5852H13.6095H13.6339H13.6583H13.6827H13.7071H13.7314H13.7558H13.7802H13.8046H13.829H13.8533H13.8777H13.9021H13.9265H13.9508H13.9752H13.9996H14.024H14.0484H14.0727H14.0971H14.1215H14.1459H14.1702H14.1946H14.219H14.2434H14.2678H14.2921H14.3165H14.3409H14.3653H14.3897H14.414H14.4384H14.4628H14.4872H14.5115H14.5359H14.5603H14.5847H14.6091H14.6334H14.6578H14.6822H14.7066H14.731H14.7553H14.7797H14.8041H14.8285H14.8528H14.8772H14.9016H14.926H14.9504H14.9747H14.9991H15.0235H15.0479H15.0722H15.0966H15.121H15.1454H15.1698H15.1941H15.2185H15.2429H15.2673H15.2917H15.316H15.3404H15.3648H15.3892H15.4135H15.4379H15.4623H15.4867H15.5111H15.5354H15.5598H15.5842H15.6086H15.633H15.6573H15.6817H15.7061H15.7305H15.7548H15.7792H15.8036H15.828H15.8524H15.8767H15.9011H15.9255H15.9499H15.9742H15.9986H16.023H16.0474H16.0718H16.0961H16.1205H16.1449H16.1693H16.1937H16.218H16.2424H16.2668H16.2912H16.3155H16.3399H16.3643H16.3887H16.4131H16.4374H16.4618H16.4862H16.5106H16.535H16.5593H16.5837H16.6081H16.6325H16.6568H16.6812H16.7056H16.73H16.7544H16.7787H16.8031H16.8275H16.8519H16.8762H16.9006H16.925H16.9494H16.9738H16.9981H17.0225H17.0469H17.0713H17.0957H17.12H17.1444H17.1688H17.1932H17.2175H17.2419H17.2663H17.2907H17.3151H17.3394H17.3638H17.3882H17.4126H17.437H17.4613H17.4857H17.5101H17.5345H17.5588H17.5832H17.6076H17.632H17.6564H17.6807H17.7051H17.7295H17.7539H17.7782H17.8026H17.827H17.8514H17.8758H17.9001H17.9245H17.9489H17.9733H17.9977H18.022H18.0464H18.0708H18.0952H18.1195H18.1439H18.1683H18.1927H18.2171H18.2414H18.2658H18.2902H18.3146H18.339H18.3633H18.3877H18.4121H18.4365H18.4608H18.4852H18.5096H18.534H18.5584H18.5827H18.6071H18.6315H18.6559H18.6802H18.7046H18.729H18.7534H18.7778H18.8021H18.8265H18.8509H18.8753H18.8997H18.924H18.9484H18.9728H18.9972H19.0215H19.0459H19.0703H19.0947H19.1191H19.1434H19.1678H19.1922H19.2166H19.241H19.2653H19.2897H19.3141H19.3385H19.3628H19.3872H19.4116H19.436H19.4604H19.4847H19.5091H19.5335H19.5579H19.5822H19.6066H19.631H19.6554H19.6798H19.7041H19.7285H19.7529H19.7773H19.8017H19.826H19.8504H19.8748H19.8992H19.9235H19.9479H19.9723H19.9967L19.9968 17.629Z" fill="#3F3F3F"/>
<path d="M18.8754 27.2341L18.8997 27.2098H18.9241H18.9484H18.9728H18.9972H19.0216H19.0459L19.046 27.2098L19.0703 27.1855H19.0947H19.1191H19.1435H19.1678L19.1679 27.1854L19.1922 27.1611H19.2166H19.241L19.2411 27.161L19.2654 27.1367H19.2897H19.3141L19.3142 27.1366L19.3385 27.1123L19.3386 27.1122L19.3629 27.0879H19.3872H19.4116L19.4117 27.0879L19.436 27.0636L19.4361 27.0635L19.4604 27.0392H19.4848L19.4848 27.0391L19.5091 27.0148H19.5335L19.5336 27.0147L19.5579 26.9904L19.558 26.9904L19.5823 26.966H19.6067L19.6067 26.966L19.631 26.9417L19.6311 26.9416L19.6554 26.9173L19.6555 26.9172L19.6798 26.8929L19.6799 26.8928L19.7042 26.8685L19.7042 26.8685L19.7285 26.8442L19.7286 26.8441L19.7529 26.8198L19.753 26.8197L19.7773 26.7954L19.7774 26.7953L19.8017 26.771L19.8018 26.7709L19.8261 26.7466L19.8261 26.7466L19.8504 26.7223L19.8505 26.7222L19.8748 26.6979L19.8749 26.6978V26.6734L19.8992 26.6491L19.8993 26.6491L19.9236 26.6248L19.9236 26.6247V26.6003L19.9479 26.576L19.948 26.5759V26.5515L19.9723 26.5272L19.9724 26.5272L19.9967 26.5029L19.9968 26.5028V26.4784V26.454L20.0211 26.4297L20.0212 26.4296V26.4053L20.0455 26.381L20.0455 26.3809V26.3565V26.3321L20.0698 26.3078L20.0699 26.3078V26.2834L20.0942 26.2591L20.0943 26.259V26.2346V26.2102V26.1859L20.1186 26.1616L20.1187 26.1615V26.1371V26.1127V26.0884L20.143 26.064L20.1431 26.064V26.0396V26.0152V25.9908V25.9665V25.9421V25.9177L20.1674 25.8934L20.1674 25.8933V25.8689V25.8446V25.8202V25.7958V25.7714V25.7471V25.7227V25.6983V25.6739V25.6495V25.6252V25.6008V25.5764V25.552V25.5276V25.5033V25.4789V25.4545V25.4301V25.4058V25.3814V25.357V25.3326V25.3082V25.2839V25.2595L20.1917 25.2352L20.1918 25.2351V25.2107V25.1864V25.162V25.1376V25.1132V25.0888V25.0645V25.0401V25.0157V24.9913V24.9669V24.9426V24.9182V24.8938V24.8694V24.8451V24.8207V24.7963V24.7719V24.7475V24.7232V24.6988V24.6744V24.65V24.6256V24.6013V24.5769V24.5525V24.5281V24.5038V24.4794V24.455V24.4306V24.4062L20.1917 24.4062L20.1674 24.3819V24.3575L20.1917 24.3332L20.1918 24.3331V24.3087V24.2844V24.26L20.1917 24.2599L20.1674 24.2356L20.1917 24.2113L20.1918 24.2112L20.1917 24.2111L20.1674 24.1868V24.1625V24.1381V24.1137V24.0893V24.0649V24.0406V24.0162V23.9918V23.9674V23.9431V23.9187V23.8943V23.8699V23.8455V23.8212V23.7968V23.7724V23.748V23.7236V23.6993V23.6749V23.6505L20.1674 23.6504L20.1431 23.6261V23.6018V23.5774V23.553V23.5286V23.5042V23.4799V23.4555V23.4311V23.4067V23.3824V23.358V23.3336L20.143 23.3335L20.1187 23.3092V23.2848V23.2605V23.2361V23.2117V23.1873V23.1629V23.1386V23.1142V23.0898L20.1186 23.0897L20.0943 23.0654V23.0411V23.0167V22.9923V22.9679V22.9435V22.9192V22.8948V22.8704L20.0942 22.8703L20.0699 22.846V22.8216V22.7973V22.7729V22.7485V22.7241V22.6998V22.6754L20.0698 22.6753L20.0455 22.651V22.6266V22.6022V22.5779V22.5535V22.5291L20.0455 22.529L20.0212 22.5047V22.4804V22.456V22.4316V22.4072V22.3828L20.0211 22.3828L19.9968 22.3585V22.3341V22.3097V22.2853V22.2609L19.9967 22.2609L19.9724 22.2366V22.2122V22.1878V22.1634V22.1391V22.1147L19.9723 22.1146L19.948 22.0903V22.0659V22.0415V22.0172L19.9479 22.0171L19.9236 21.9928V21.9684V21.944V21.9196V21.8953L19.9236 21.8952L19.8993 21.8709V21.8465V21.8221V21.7978L19.8992 21.7977L19.8749 21.7734V21.749V21.7246V21.7002L19.8748 21.7002L19.8505 21.6759V21.6515V21.6271V21.6027L19.8504 21.6027L19.8261 21.5784V21.554V21.5296L19.8261 21.5295L19.8018 21.5052V21.4808V21.4565V21.4321L19.8017 21.432L19.7774 21.4077V21.3833V21.3589L19.7773 21.3589L19.753 21.3346V21.3102V21.2858V21.2614L19.7529 21.2614L19.7286 21.2371V21.2127V21.1883V21.1639L19.7285 21.1638L19.7042 21.1395V21.1152V21.0908V21.0664V21.042L19.7042 21.042L19.6799 21.0176V20.9933V20.9689V20.9445V20.9201V20.8958L19.6798 20.8957L19.6555 20.8714V20.847V20.8226V20.7982V20.7739V20.7495V20.7251L19.6554 20.725L19.6311 20.7007V20.6764V20.652V20.6276V20.6032V20.5788V20.5545V20.5301V20.5057V20.4813V20.4569V20.4326V20.4082V20.3838V20.3594V20.3351V20.3107V20.2863V20.2619V20.2375V20.2132V20.1888V20.1644V20.14V20.1156L19.6554 20.0913L19.6555 20.0913V20.0669V20.0425V20.0181V19.9938V19.9694L19.6798 19.9451L19.6799 19.945V19.9206V19.8962V19.8719V19.8475V19.8231L19.7042 19.7988L19.7042 19.7987V19.7744V19.75V19.7256L19.7285 19.7013L19.7286 19.7012V19.6768V19.6525L19.7529 19.6282L19.753 19.6281V19.6037V19.5793V19.5549L19.7773 19.5306L19.7774 19.5306V19.5062V19.4818L19.8017 19.4575L19.8018 19.4574V19.4331V19.4087L19.8261 19.3844L19.8261 19.3843V19.3599V19.3355L19.8504 19.3112L19.8505 19.3112V19.2868V19.2624L19.8748 19.2381L19.8749 19.238V19.2136V19.1893V19.1649L19.8992 19.1406L19.8993 19.1405V19.1161V19.0918V19.0674V19.043V19.0186L19.9236 18.9943L19.9236 18.9942V18.9699V18.9455V18.9211V18.8967V18.8724L19.9479 18.8481L19.948 18.848V18.8236V18.7992V18.7748V18.7505V18.7261V18.7017V18.6773V18.6529V18.6286V18.6042V18.5798V18.5554V18.5311V18.5067V18.4823V18.4579V18.4335L19.9479 18.4335L19.9236 18.4092V18.3848L19.9236 18.3847L19.8993 18.3604L19.8992 18.3603L19.8749 18.336L19.8748 18.336L19.8505 18.3117L19.8504 18.3116H19.8261L19.8018 18.2873L19.8017 18.2872H19.7773H19.7529L19.7286 18.2629L19.7285 18.2628L19.7285 18.2629L19.7042 18.2872H19.6798H19.6554H19.631H19.6067H19.5823H19.5579H19.5335H19.5091H19.4848H19.4604H19.436H19.4116H19.3872H19.3629H19.3385H19.3141H19.2897H19.2654H19.241H19.2166H19.1922H19.1678H19.1435H19.1191H19.0947H19.0703H19.0459H19.0216H18.9972H18.9728H18.9484H18.9241H18.8997H18.8753H18.8509H18.8265H18.8022H18.7778H18.7534H18.729H18.7047H18.6803H18.6559H18.6315H18.6071H18.5828H18.5584H18.534H18.5096H18.4852H18.4609H18.4365H18.4121H18.3877H18.3634H18.339H18.3146H18.2902H18.2658H18.2415H18.2171H18.1927H18.1683H18.1439H18.1196H18.0952H18.0708H18.0464H18.0221H17.9977H17.9733H17.9489H17.9245H17.9002H17.8758H17.8514H17.827H17.8027H17.7783H17.7539H17.7295H17.7051H17.6808H17.6564H17.632H17.6076H17.5832H17.5589H17.5345H17.5101H17.4857H17.4614H17.437H17.4126H17.3882H17.3638H17.3395H17.3151H17.2907H17.2663H17.2419H17.2176H17.1932H17.1688H17.1444H17.1201H17.0957H17.0713H17.0469H17.0225H16.9982H16.9738H16.9494H16.925H16.9007H16.8763H16.8519H16.8275H16.8031H16.7788H16.7544H16.73H16.7056H16.6812H16.6569H16.6325H16.6081H16.5837H16.5594H16.535H16.5106H16.4862H16.4618H16.4375H16.4131H16.3887H16.3643H16.3399H16.3156H16.2912H16.2668H16.2424H16.2181H16.1937H16.1693H16.1449H16.1205H16.0962H16.0718H16.0474H16.023H15.9987H15.9743H15.9499H15.9255H15.9011H15.8768H15.8524H15.828H15.8036H15.7792H15.7549H15.7305H15.7061H15.6817H15.6574H15.633H15.6086H15.5842H15.5598H15.5355H15.5111H15.4867H15.4623H15.4379H15.4136H15.3892H15.3648H15.3404H15.3161H15.2917H15.2673H15.2429H15.2185H15.1942H15.1698H15.1454H15.121H15.0967H15.0723H15.0479H15.0235H14.9991H14.9748H14.9504H14.926H14.9016H14.8772H14.8529H14.8285H14.8041H14.7797H14.7554H14.731H14.7066H14.6822H14.6578H14.6335H14.6091H14.5847H14.5603H14.5359H14.5116H14.4872H14.4628H14.4384H14.4141H14.3897H14.3653H14.3409H14.3165H14.2922H14.2678H14.2434H14.219H14.1947H14.1703H14.1459H14.1215H14.0971H14.0728H14.0484H14.024H13.9996H13.9752H13.9509H13.9265H13.9021H13.8777H13.8534H13.829H13.8046H13.7802H13.7558H13.7315H13.7071H13.6827H13.6583H13.6339H13.6096H13.5852H13.5608H13.5364H13.5121H13.4877H13.4633H13.4389L13.4388 18.2873L13.4145 18.3116H13.3902L13.3901 18.3117L13.3658 18.336L13.3657 18.336L13.3414 18.3603L13.3413 18.3604L13.317 18.3847L13.317 18.3848V18.4092V18.4335V18.4579L13.2927 18.4822L13.2926 18.4823V18.5067V18.5311V18.5554V18.5798V18.6042V18.6286V18.6529V18.6773V18.7017V18.7261V18.7505V18.7748V18.7992L13.2927 18.7993L13.317 18.8236V18.848V18.8724V18.8967V18.9211V18.9455V18.9699V18.9942L13.317 18.9943L13.3413 19.0186V19.043V19.0674V19.0918V19.1161V19.1405L13.3414 19.1406L13.3657 19.1649V19.1893V19.2136V19.238L13.3658 19.2381L13.3901 19.2624V19.2868V19.3112L13.3902 19.3112L13.4145 19.3355V19.3599V19.3843L13.4145 19.3844L13.4388 19.4087V19.4331V19.4574V19.4818L13.4389 19.4819L13.4632 19.5062V19.5306V19.5549L13.4633 19.555L13.4876 19.5793V19.6037V19.6281L13.4877 19.6282L13.512 19.6525V19.6768V19.7012V19.7256L13.5121 19.7257L13.5364 19.75V19.7744V19.7987L13.5364 19.7988L13.5607 19.8231V19.8475V19.8719V19.8962V19.9206L13.5608 19.9207L13.5851 19.945V19.9694V19.9938V20.0181V20.0425V20.0669V20.0913L13.5852 20.0913L13.6095 20.1156V20.14V20.1644V20.1888V20.2132V20.2375V20.2619V20.2863V20.3107V20.3351V20.3594V20.3838V20.4082V20.4326V20.4569V20.4813V20.5057V20.5301V20.5545V20.5788V20.6032V20.6276V20.652V20.6764L13.5852 20.7007L13.5851 20.7007V20.7251V20.7495V20.7739V20.7982V20.8226L13.5608 20.8469L13.5607 20.847V20.8714V20.8958V20.9201V20.9445L13.5364 20.9688L13.5364 20.9689V20.9933V21.0176V21.042L13.5121 21.0663L13.512 21.0664V21.0908V21.1152V21.1395L13.4877 21.1638L13.4876 21.1639V21.1883V21.2127V21.2371V21.2614L13.4633 21.2857L13.4632 21.2858V21.3102V21.3346L13.4389 21.3589L13.4388 21.3589V21.3833V21.4077L13.4145 21.432L13.4145 21.4321V21.4565V21.4808L13.3902 21.5051L13.3901 21.5052V21.5296V21.554L13.3658 21.5783L13.3657 21.5784V21.6027V21.6271V21.6515L13.3414 21.6758L13.3413 21.6759V21.7002V21.7246V21.749L13.317 21.7733L13.317 21.7734V21.7978V21.8221V21.8465L13.2927 21.8708L13.2926 21.8709V21.8953V21.9196V21.944V21.9684L13.2683 21.9927L13.2682 21.9928V22.0172V22.0415V22.0659L13.2439 22.0902L13.2438 22.0903V22.1147V22.1391V22.1634V22.1878V22.2122L13.2195 22.2365L13.2194 22.2366V22.2609V22.2853V22.3097V22.3341L13.1951 22.3584L13.1951 22.3585V22.3828V22.4072V22.4316V22.456V22.4804L13.1708 22.5047L13.1707 22.5047V22.5291V22.5535V22.5779V22.6022V22.6266V22.651L13.1464 22.6753L13.1463 22.6754V22.6998V22.7241V22.7485V22.7729V22.7973V22.8216V22.846L13.122 22.8703L13.1219 22.8704V22.8948V22.9192V22.9435V22.9679V22.9923V23.0167L13.0976 23.041L13.0975 23.0411V23.0654V23.0898V23.1142V23.1386V23.1629V23.1873V23.2117V23.2361L13.0732 23.2604L13.0732 23.2605V23.2848V23.3092V23.3336V23.358V23.3824V23.4067V23.4311V23.4555V23.4799V23.5042L13.0489 23.5285L13.0488 23.5286L13.0489 23.5287L13.0732 23.553L13.0489 23.5773L13.0488 23.5774V23.6018V23.6261V23.6505V23.6749V23.6993V23.7236V23.748V23.7724V23.7968V23.8212V23.8455V23.8699V23.8943V23.9187V23.9431L13.0245 23.9674L13.0244 23.9674V23.9918V24.0162V24.0406V24.0649V24.0893V24.1137V24.1381V24.1625V24.1868V24.2112V24.2356V24.26V24.2844V24.3087V24.3331V24.3575V24.3819V24.4062V24.4306V24.455V24.4794V24.5038V24.5281V24.5525V24.5769V24.6013V24.6256V24.65V24.6744V24.6988V24.7232V24.7475V24.7719V24.7963V24.8207V24.8451V24.8694V24.8938V24.9182V24.9426V24.9669V24.9913V25.0157V25.0401V25.0645V25.0888V25.1132V25.1376V25.162V25.1864V25.2107V25.2351V25.2595V25.2839V25.3082V25.3326V25.357V25.3814V25.4058V25.4301V25.4545V25.4789V25.5033V25.5276V25.552V25.5764V25.6008V25.6252V25.6495V25.6739V25.6983V25.7227V25.7471V25.7714L13.0245 25.7715L13.0488 25.7958V25.8202V25.8446V25.8689V25.8933V25.9177V25.9421V25.9665V25.9908L13.0489 25.9909L13.0732 26.0152V26.0396V26.064V26.0884L13.0732 26.0884L13.0975 26.1127V26.1371V26.1615V26.1859L13.0976 26.1859L13.1219 26.2102V26.2346V26.259V26.2834L13.122 26.2835L13.1463 26.3078V26.3321V26.3565L13.1464 26.3566L13.1707 26.3809V26.4053L13.1708 26.4053L13.1951 26.4296V26.454V26.4784L13.1951 26.4785L13.2194 26.5028L13.2195 26.5029L13.2438 26.5272V26.5515L13.2439 26.5516L13.2682 26.5759V26.6003L13.2683 26.6004L13.2926 26.6247V26.6491L13.2927 26.6491L13.317 26.6734L13.317 26.6735L13.3413 26.6978V26.7222L13.3414 26.7223L13.3657 26.7466L13.3658 26.7466L13.3901 26.7709L13.3902 26.771L13.4145 26.7953L13.4145 26.7954L13.4388 26.8197V26.8441L13.4389 26.8442H13.4633L13.4876 26.8685L13.4877 26.8685L13.512 26.8928L13.5121 26.8929L13.5364 26.9172L13.5364 26.9173L13.5607 26.9416L13.5608 26.9417L13.5851 26.966L13.5852 26.966L13.6095 26.9904L13.6096 26.9904H13.6339L13.6583 27.0147L13.6583 27.0148L13.6826 27.0391L13.6827 27.0392H13.7071L13.7314 27.0635L13.7315 27.0636H13.7558L13.7801 27.0879L13.7802 27.0879L13.8045 27.1122L13.8046 27.1123H13.829H13.8534L13.8777 27.1366L13.8777 27.1367H13.9021L13.9264 27.161L13.9265 27.1611H13.9509H13.9752L13.9995 27.1854L13.9996 27.1855H14.024H14.0484H14.0728L14.0971 27.2098L14.0971 27.2098H14.1215H14.1459H14.1703H14.1947H14.219H14.2434L14.2677 27.2341L14.2678 27.2342H14.2922H14.3165H14.3409H14.3653H14.3897H14.4141H14.4384H14.4628H14.4872H14.5116H14.5359H14.5603H14.5847H14.6091H14.6335H14.6578H14.6822H14.7066H14.731H14.7554H14.7797H14.8041H14.8285H14.8529H14.8772H14.9016H14.926H14.9504H14.9748H14.9991H15.0235H15.0479H15.0723H15.0967H15.121H15.1454H15.1698H15.1942H15.2185H15.2429H15.2673H15.2917H15.3161H15.3404H15.3648H15.3892H15.4136H15.4379H15.4623H15.4867H15.5111H15.5355H15.5598H15.5842H15.6086H15.633H15.6574H15.6817H15.7061H15.7305H15.7549H15.7792H15.8036H15.828H15.8524H15.8768H15.9011H15.9255H15.9499H15.9743H15.9987H16.023H16.0474H16.0718H16.0962H16.1205H16.1449H16.1693H16.1937H16.2181H16.2424H16.2668H16.2912H16.3156H16.3399H16.3643H16.3887H16.4131H16.4375H16.4618H16.4862H16.5106H16.535H16.5594H16.5837H16.6081H16.6325H16.6569H16.6812H16.7056H16.73H16.7544H16.7788H16.8031H16.8275H16.8519H16.8763H16.9007H16.925H16.9494H16.9738H16.9982H17.0225H17.0469H17.0713H17.0957H17.1201H17.1444H17.1688H17.1932H17.2176H17.2419H17.2663H17.2907H17.3151H17.3395H17.3638H17.3882H17.4126H17.437H17.4614H17.4857H17.5101H17.5345H17.5589H17.5832H17.6076H17.632H17.6564H17.6808H17.7051H17.7295H17.7539H17.7783H17.8027H17.827H17.8514H17.8758H17.9002H17.9245H17.9489H17.9733H17.9977H18.0221H18.0464H18.0708H18.0952H18.1196H18.1439H18.1683H18.1927H18.2171H18.2415H18.2658H18.2902H18.3146H18.339H18.3634H18.3877H18.4121H18.4365H18.4609H18.4852H18.5096H18.534H18.5584H18.5828H18.6071H18.6315H18.6559H18.6803H18.7047H18.729H18.7534H18.7778H18.8022H18.8265H18.8509H18.8753L18.8754 27.2341Z" fill="#3F3F3F"/>
<path d="M18.4121 21.1638H18.3877H18.3633L18.339 21.1395L18.3389 21.1394H18.3146H18.2902H18.2658H18.2414H18.217L18.1927 21.1151L18.1927 21.1151H18.1683H18.1439H18.1195L18.0952 21.0908L18.0952 21.0907H18.0708H18.0464L18.0221 21.0664L18.022 21.0663H17.9976H17.9733H17.9489L17.9246 21.042L17.9245 21.0419H17.9001L17.8758 21.0176L17.8757 21.0176H17.8514H17.827L17.8027 20.9933L17.8026 20.9932H17.7782H17.7539L17.7296 20.9689L17.7295 20.9688H17.7051H17.6807L17.6564 20.9445L17.6563 20.9444H17.632H17.6076L17.5833 20.9201L17.5832 20.92H17.5588H17.5344L17.5101 20.8957L17.5101 20.8957H17.4857H17.4613H17.4369L17.4126 20.8714L17.4126 20.8713H17.3882H17.3638L17.3395 20.847L17.3394 20.8469H17.315H17.2907H17.2663L17.242 20.8226L17.2419 20.8225H17.2175H17.1932H17.1688H17.1444L17.1201 20.7982L17.12 20.7982H17.0956H17.0713H17.0469H17.0225H16.9981L16.9738 20.7738L16.9737 20.7738H16.9494H16.925H16.9006H16.8762H16.8519H16.8275H16.8031L16.7788 20.7495L16.7787 20.7494H16.7543H16.73H16.7056H16.6812H16.6568H16.6324H16.6081H16.5837H16.5593H16.5349H16.5106H16.4862H16.4618H16.4374H16.413L16.413 20.7495L16.3887 20.7738H16.3643H16.3399H16.3155H16.2912H16.2668H16.2424H16.218H16.1936L16.1936 20.7738L16.1693 20.7982H16.1449H16.1205H16.0961H16.0717L16.0717 20.7982L16.0474 20.8225H16.023H15.9986H15.9742H15.9499L15.9498 20.8226L15.9255 20.8469H15.9011H15.8767H15.8523L15.8523 20.847L15.828 20.8713H15.8036H15.7792L15.7791 20.8714L15.7548 20.8957H15.7304H15.7061L15.706 20.8957L15.6817 20.92H15.6573H15.6329H15.6086L15.6085 20.9201L15.5842 20.9444H15.5598H15.5354L15.5353 20.9445L15.511 20.9688H15.4867L15.4866 20.9689L15.4623 20.9932H15.4379H15.4135L15.4135 20.9933L15.3892 21.0176H15.3648H15.3404L15.3403 21.0176L15.316 21.0419H15.2916L15.2916 21.042L15.2673 21.0663H15.2429H15.2185L15.2184 21.0664L15.1941 21.0907H15.1697H15.1454L15.1453 21.0908L15.121 21.1151H15.0966H15.0722H15.0479L15.0478 21.1151L15.0235 21.1394H14.9991H14.9747H14.9503H14.926H14.9016H14.8772H14.8528H14.8285H14.8041H14.7797H14.7553H14.7309L14.7066 21.1151L14.7066 21.1151H14.6822L14.6579 21.0908L14.6578 21.0907L14.6335 21.0664L14.6334 21.0663L14.6091 21.042L14.609 21.0419L14.5847 21.0176V20.9933L14.5847 20.9932L14.5604 20.9689V20.9445V20.9201V20.8957V20.8714V20.847V20.8226V20.7982L14.5847 20.7739L14.5847 20.7738V20.7495L14.609 20.7252L14.6091 20.7251L14.6334 20.7008L14.6335 20.7007L14.6578 20.6764L14.6579 20.6763L14.6822 20.652L14.6823 20.652L14.7066 20.6277H14.7309L14.731 20.6276L14.7553 20.6033H14.7797H14.8041L14.8041 20.6032L14.8285 20.5789H14.8528L14.8529 20.5788L14.8772 20.5545H14.9016H14.926H14.9503L14.9504 20.5544L14.9747 20.5301H14.9991H15.0235L15.0236 20.5301L15.0479 20.5058H15.0722H15.0966L15.0967 20.5057L15.121 20.4814H15.1454H15.1697L15.1698 20.4813L15.1941 20.457H15.2185L15.2186 20.4569L15.2429 20.4326H15.2673H15.2916L15.2917 20.4326L15.316 20.4082H15.3404H15.3648L15.3649 20.4082L15.3892 20.3839H15.4135H15.4379L15.438 20.3838L15.4623 20.3595H15.4867H15.511L15.5111 20.3594L15.5354 20.3351H15.5598H15.5842H15.6086L15.6086 20.335L15.6329 20.3107H15.6573H15.6817L15.6818 20.3107L15.7061 20.2864H15.7304H15.7548H15.7792L15.7793 20.2863L15.8036 20.262H15.828H15.8523H15.8767H15.9011L15.9012 20.2619L15.9255 20.2376H15.9499H15.9742H15.9986H16.023H16.0474L16.0474 20.2375L16.0717 20.2132H16.0961H16.1205H16.1449H16.1693H16.1936H16.218H16.2424H16.2668H16.2912L16.2912 20.2131L16.3155 20.1888H16.3399H16.3643H16.3887H16.413H16.4374H16.4618H16.4862H16.5106H16.5349H16.5593H16.5837H16.6081H16.6324H16.6568H16.6812H16.7056H16.73H16.7543H16.7787H16.8031H16.8275H16.8519H16.8762H16.9006L16.9249 20.2131L16.925 20.2132H16.9494H16.9737H16.9981H17.0225H17.0469H17.0713H17.0956H17.12L17.1443 20.2375L17.1444 20.2376H17.1688H17.1932H17.2175H17.2419L17.2662 20.2619L17.2663 20.262H17.2907H17.315H17.3394H17.3638L17.3881 20.2863L17.3882 20.2864H17.4126H17.4369H17.4613H17.4857L17.51 20.3107L17.5101 20.3107H17.5344H17.5588L17.5831 20.335L17.5832 20.3351H17.6076H17.632L17.6563 20.3594L17.6563 20.3595H17.6807H17.7051L17.7294 20.3838L17.7295 20.3839H17.7539H17.7782L17.8025 20.4082L17.8026 20.4082H17.827H17.8514H17.8757L17.9 20.4326L17.9001 20.4326H17.9245L17.9488 20.4569L17.9489 20.457H17.9733H17.9976L18.0219 20.4813L18.022 20.4814H18.0464H18.0708L18.0951 20.5057L18.0952 20.5058H18.1195H18.1439L18.1682 20.5301L18.1683 20.5301H18.1927H18.217H18.2414L18.2657 20.5544L18.2658 20.5545H18.2902H18.3146L18.3389 20.5788L18.3389 20.5789H18.3633H18.3877H18.4121L18.4364 20.6032L18.4364 20.6033H18.4608H18.4852L18.5095 20.6276L18.5096 20.6277H18.534L18.5583 20.652L18.5583 20.652L18.5826 20.6763L18.5827 20.6764L18.607 20.7007L18.6071 20.7008L18.6314 20.7251L18.6315 20.7252L18.6558 20.7495V20.7738L18.6559 20.7739L18.6802 20.7982V20.8226V20.847V20.8714V20.8957V20.9201V20.9445V20.9689L18.6559 20.9932L18.6558 20.9933V21.0176L18.6315 21.0419L18.6314 21.042L18.6071 21.0663L18.607 21.0664L18.5827 21.0907L18.5826 21.0908L18.5583 21.1151H18.534L18.5339 21.1151L18.5096 21.1394H18.4852H18.4608H18.4364L18.4364 21.1395L18.4121 21.1638Z" fill="#3F3F3F"/>
<path d="M14.9016 23.4798H14.8772H14.8528L14.8285 23.4555L14.8285 23.4554H14.8041H14.7797H14.7553H14.7309L14.7066 23.4311L14.7066 23.431H14.6822L14.6579 23.4067L14.6578 23.4067L14.6335 23.3824L14.6334 23.3823L14.6091 23.358L14.609 23.3579L14.5847 23.3336V23.3092L14.5847 23.3092L14.5604 23.2849V23.2605V23.2361V23.2117V23.1873V23.163V23.1386V23.1142V23.0898L14.5847 23.0655L14.5847 23.0654V23.0411L14.609 23.0168L14.6091 23.0167L14.6334 22.9924L14.6335 22.9923L14.6578 22.968L14.6579 22.9679L14.6822 22.9436H14.7066L14.7066 22.9436L14.7309 22.9193L14.731 22.9192L14.7553 22.8949H14.7797H14.8041L14.8041 22.8948L14.8285 22.8705H14.8528H14.8772L14.8773 22.8704L14.9016 22.8461H14.926H14.9503L14.9504 22.846L14.9747 22.8217H14.9991H15.0235H15.0479L15.0479 22.8217L15.0722 22.7974H15.0966H15.121L15.1211 22.7973L15.1454 22.773H15.1697H15.1941L15.1942 22.7729L15.2185 22.7486H15.2429H15.2673L15.2673 22.7485L15.2916 22.7242H15.316H15.3404L15.3405 22.7242L15.3648 22.6998H15.3892H15.4135L15.4136 22.6998L15.4379 22.6755H15.4623H15.4867L15.4867 22.6754L15.511 22.6511H15.5354H15.5598L15.5599 22.651L15.5842 22.6267H15.6086H15.6329L15.633 22.6266L15.6573 22.6023H15.6817H15.7061L15.7061 22.6023L15.7304 22.578H15.7548H15.7792H15.8036H15.828L15.828 22.5779L15.8523 22.5536H15.8767H15.9011H15.9255H15.9499H15.9742L15.9743 22.5535L15.9986 22.5292H16.023H16.0474H16.0717H16.0961H16.1205H16.1449L16.145 22.5291L16.1693 22.5048H16.1936H16.218H16.2424H16.2668H16.2912H16.3155H16.3399H16.3643H16.3887H16.413H16.4374H16.4618H16.4862H16.5106H16.5349H16.5593H16.5837H16.6081H16.6324H16.6568H16.6812H16.7056H16.73H16.7543H16.7787H16.8031H16.8275H16.8519H16.8762H16.9006H16.925H16.9494H16.9737L16.998 22.5291L16.9981 22.5292H17.0225H17.0469H17.0713H17.0956H17.12H17.1444H17.1688H17.1932L17.2175 22.5535L17.2175 22.5536H17.2419H17.2663H17.2907H17.315H17.3394L17.3637 22.5779L17.3638 22.578H17.3882H17.4126H17.4369L17.4612 22.6023L17.4613 22.6023H17.4857H17.5101H17.5344L17.5588 22.6266L17.5588 22.6267H17.5832H17.6076L17.6319 22.651L17.632 22.6511H17.6563H17.6807H17.7051L17.7294 22.6754L17.7295 22.6755H17.7539L17.7782 22.6998L17.7782 22.6998H17.8026H17.827H17.8514L17.8757 22.7242L17.8757 22.7242H17.9001H17.9245L17.9488 22.7485L17.9489 22.7486H17.9733H17.9976L18.0219 22.7729L18.022 22.773H18.0464H18.0708L18.0951 22.7973L18.0952 22.7974H18.1195H18.1439L18.1682 22.8217L18.1683 22.8217H18.1927H18.217H18.2414L18.2657 22.846L18.2658 22.8461H18.2902H18.3146L18.3389 22.8704L18.3389 22.8705H18.3633H18.3877H18.4121L18.4364 22.8948L18.4364 22.8949H18.4608H18.4852L18.5095 22.9192L18.5096 22.9193H18.534L18.5583 22.9436L18.5583 22.9436L18.5826 22.9679L18.5827 22.968L18.607 22.9923L18.6071 22.9924L18.6314 23.0167L18.6315 23.0168L18.6558 23.0411V23.0654V23.0898L18.6559 23.0899L18.6802 23.1142V23.1386V23.163V23.1873V23.2117V23.2361V23.2605L18.6559 23.2848L18.6558 23.2849V23.3092L18.6315 23.3335L18.6314 23.3336L18.6071 23.3579L18.607 23.358L18.5827 23.3823L18.5826 23.3824L18.5583 23.4067L18.5583 23.4067L18.534 23.431H18.5096L18.5095 23.4311L18.4852 23.4554H18.4608H18.4364H18.4121H18.3877H18.3633H18.3389H18.3146H18.2902H18.2658H18.2414L18.2171 23.4311L18.217 23.431H18.1927H18.1683H18.1439H18.1195L18.0952 23.4067L18.0952 23.4067H18.0708L18.0465 23.3824L18.0464 23.3823H18.022H17.9976L17.9733 23.358L17.9733 23.3579H17.9489H17.9245H17.9001L17.8758 23.3336L17.8757 23.3335H17.8514H17.827L17.8027 23.3092L17.8026 23.3092H17.7782L17.7539 23.2849L17.7539 23.2848H17.7295H17.7051L17.6808 23.2605L17.6807 23.2604H17.6563H17.632H17.6076L17.5833 23.2361L17.5832 23.236H17.5588H17.5344L17.5101 23.2117L17.5101 23.2116H17.4857H17.4613H17.4369L17.4126 23.1873L17.4126 23.1873H17.3882H17.3638L17.3395 23.163L17.3394 23.1629H17.315H17.2907H17.2663L17.242 23.1386L17.2419 23.1385H17.2175H17.1932H17.1688H17.1444L17.1201 23.1142L17.12 23.1141H17.0956H17.0713H17.0469H17.0225H16.9981H16.9737L16.9494 23.0898L16.9494 23.0898H16.925H16.9006H16.8762H16.8519H16.8275H16.8031H16.7787H16.7543H16.73L16.7057 23.0654L16.7056 23.0654H16.6812H16.6568H16.6324H16.6081H16.5837H16.5593H16.5349H16.5106H16.4862L16.4861 23.0654L16.4618 23.0898H16.4374H16.413H16.3887H16.3643H16.3399H16.3155H16.2912H16.2668L16.2667 23.0898L16.2424 23.1141H16.218H16.1936H16.1693H16.1449H16.1205L16.1204 23.1142L16.0961 23.1385H16.0717H16.0474H16.023H15.9986L15.9985 23.1386L15.9742 23.1629H15.9499H15.9255H15.9011L15.901 23.163L15.8767 23.1873H15.8523H15.828L15.8279 23.1873L15.8036 23.2116H15.7792H15.7548H15.7304L15.7304 23.2117L15.7061 23.236H15.6817H15.6573L15.6572 23.2361L15.6329 23.2604H15.6086H15.5842H15.5598L15.5597 23.2605L15.5354 23.2848H15.511H15.4867L15.4866 23.2849L15.4623 23.3092H15.4379H15.4135L15.4135 23.3092L15.3892 23.3335H15.3648H15.3404L15.3403 23.3336L15.316 23.3579H15.2916H15.2673L15.2672 23.358L15.2429 23.3823H15.2185H15.1941L15.194 23.3824L15.1697 23.4067H15.1454L15.1453 23.4067L15.121 23.431H15.0966H15.0722H15.0479L15.0478 23.4311L15.0235 23.4554H14.9991H14.9747H14.9503H14.926L14.9259 23.4555L14.9016 23.4798Z" fill="#3F3F3F"/>
<path d="M14.926 25.747H14.9016H14.8772H14.8528L14.8285 25.7227L14.8285 25.7226H14.8041H14.7797H14.7553L14.731 25.6983L14.7309 25.6982H14.7066L14.6823 25.6739L14.6822 25.6738L14.6579 25.6495L14.6578 25.6494H14.6334L14.6091 25.6251V25.6008L14.609 25.6007L14.5847 25.5764L14.5847 25.5763L14.5604 25.552V25.5276V25.5032V25.4789V25.4545V25.4301V25.4057V25.3814L14.5847 25.3571L14.5847 25.357V25.3326L14.609 25.3083L14.6091 25.3082L14.6334 25.2839L14.6335 25.2838L14.6578 25.2595L14.6579 25.2595L14.6822 25.2352L14.6823 25.2351L14.7066 25.2108L14.7066 25.2107L14.7309 25.1864H14.7553H14.7797L14.7798 25.1863L14.8041 25.162H14.8285L14.8285 25.162L14.8528 25.1376H14.8772H14.9016H14.926L14.926 25.1376L14.9503 25.1133H14.9747H14.9991H15.0235L15.0236 25.1132L15.0479 25.0889H15.0722H15.0966L15.0967 25.0888L15.121 25.0645H15.1454H15.1697H15.1941L15.1942 25.0644L15.2185 25.0401H15.2429L15.243 25.0401L15.2673 25.0158H15.2916H15.316L15.3161 25.0157L15.3404 24.9914H15.3648H15.3892H15.4135L15.4136 24.9913L15.4379 24.967H15.4623L15.4624 24.9669L15.4867 24.9426H15.511H15.5354L15.5355 24.9425L15.5598 24.9182H15.5842H15.6086L15.6086 24.9182L15.6329 24.8939H15.6573H15.6817H15.7061L15.7061 24.8938L15.7304 24.8695H15.7548H15.7792H15.8036L15.8037 24.8694L15.828 24.8451H15.8523H15.8767H15.9011L15.9012 24.845L15.9255 24.8207H15.9499H15.9742H15.9986H16.023H16.0474L16.0474 24.8207L16.0717 24.7964H16.0961H16.1205H16.1449H16.1693H16.1936L16.1937 24.7963L16.218 24.772H16.2424H16.2668H16.2912H16.3155H16.3399H16.3643H16.3887H16.413H16.4374H16.4618H16.4862H16.5106H16.5349H16.5593H16.5837H16.6081H16.6324H16.6568H16.6812H16.7056H16.73H16.7543H16.7787H16.8031H16.8275H16.8519H16.8762H16.9006H16.925H16.9494H16.9737L16.998 24.7963L16.9981 24.7964H17.0225H17.0469H17.0713H17.0956H17.12H17.1444L17.1687 24.8207L17.1688 24.8207H17.1932H17.2175H17.2419H17.2663H17.2907L17.315 24.845L17.315 24.8451H17.3394H17.3638L17.3881 24.8694L17.3882 24.8695H17.4126H17.4369H17.4613H17.4857L17.51 24.8938L17.5101 24.8939H17.5344H17.5588L17.5831 24.9182L17.5832 24.9182H17.6076H17.632L17.6563 24.9425L17.6563 24.9426H17.6807H17.7051L17.7294 24.9669L17.7295 24.967H17.7539H17.7782L17.8025 24.9913L17.8026 24.9914H17.827H17.8514L17.8757 25.0157L17.8757 25.0158H17.9001H17.9245L17.9488 25.0401L17.9489 25.0401H17.9733H17.9976H18.022L18.0463 25.0644L18.0464 25.0645H18.0708H18.0952L18.1195 25.0888L18.1195 25.0889H18.1439H18.1683L18.1926 25.1132L18.1927 25.1133H18.217H18.2414H18.2658L18.2901 25.1376L18.2902 25.1376H18.3146H18.3389H18.3633L18.3876 25.162L18.3877 25.162H18.4121H18.4364L18.4608 25.1863L18.4608 25.1864H18.4852L18.5095 25.2107L18.5096 25.2108H18.534L18.5583 25.2351L18.5583 25.2352L18.5826 25.2595L18.5827 25.2595L18.607 25.2838L18.6071 25.2839L18.6314 25.3082L18.6315 25.3083L18.6558 25.3326V25.357L18.6559 25.3571L18.6802 25.3814V25.4057V25.4301V25.4545V25.4789V25.5032V25.5276L18.6559 25.5519L18.6558 25.552V25.5764L18.6315 25.6007L18.6314 25.6008L18.6071 25.6251L18.607 25.6251L18.5827 25.6494L18.5826 25.6495L18.5583 25.6738L18.5583 25.6739L18.534 25.6982H18.5096L18.5095 25.6983L18.4852 25.7226H18.4608H18.4364H18.4121H18.3877H18.3633H18.3389H18.3146H18.2902H18.2658H18.2414H18.217L18.1927 25.6983L18.1927 25.6982H18.1683H18.1439H18.1195L18.0952 25.6739L18.0952 25.6738H18.0708H18.0464H18.022L17.9977 25.6495L17.9976 25.6494H17.9733L17.949 25.6251L17.9489 25.6251H17.9245H17.9001L17.8758 25.6008L17.8757 25.6007H17.8514H17.827L17.8027 25.5764L17.8026 25.5763H17.7782H17.7539L17.7296 25.552L17.7295 25.5519H17.7051L17.6808 25.5276L17.6807 25.5276H17.6563H17.632L17.6077 25.5032L17.6076 25.5032H17.5832H17.5588L17.5345 25.4789L17.5344 25.4788H17.5101H17.4857H17.4613L17.437 25.4545L17.4369 25.4544H17.4126H17.3882L17.3639 25.4301L17.3638 25.43H17.3394H17.315H17.2907L17.2664 25.4057L17.2663 25.4057H17.2419H17.2175H17.1932H17.1688L17.1445 25.3814L17.1444 25.3813H17.12H17.0956H17.0713H17.0469H17.0225H16.9981L16.9738 25.357L16.9737 25.3569H16.9494H16.925H16.9006H16.8762H16.8519H16.8275H16.8031H16.7787H16.7543H16.73H16.7056H16.6812H16.6568H16.6324H16.6081H16.5837H16.5593H16.5349H16.5106H16.4862H16.4618H16.4374H16.413H16.3887H16.3643H16.3399H16.3155H16.2912H16.2668H16.2424L16.2423 25.357L16.218 25.3813H16.1936H16.1693H16.1449H16.1205L16.1204 25.3814L16.0961 25.4057H16.0717H16.0474H16.023H15.9986H15.9742L15.9742 25.4057L15.9499 25.43H15.9255H15.9011L15.901 25.4301L15.8767 25.4544H15.8523H15.828H15.8036L15.8035 25.4545L15.7792 25.4788H15.7548H15.7304H15.7061L15.706 25.4789L15.6817 25.5032H15.6573H15.6329L15.6329 25.5032L15.6086 25.5276H15.5842H15.5598L15.5597 25.5276L15.5354 25.5519H15.511H15.4867L15.4866 25.552L15.4623 25.5763H15.4379H15.4135L15.4135 25.5764L15.3892 25.6007H15.3648L15.3647 25.6008L15.3404 25.6251H15.316H15.2916L15.2916 25.6251L15.2673 25.6494H15.2429L15.2428 25.6495L15.2185 25.6738H15.1941H15.1697H15.1454L15.1453 25.6739L15.121 25.6982H15.0966H15.0722H15.0479L15.0478 25.6983L15.0235 25.7226H14.9991H14.9747H14.9503L14.9503 25.7227L14.926 25.747Z" fill="#3F3F3F"/>
</svg>
